<svg xmlns="http://www.w3.org/2000/svg" viewBox="0 0 16 16">
  <style>
    path {
      fill: #000;
    }
    @media (prefers-color-scheme: dark) {
      path {
        fill: #fff;
      }
    }
  </style>
<path d="M6.83243 9.99459C7.09189 7.05405 6.65946 3.94054 8.82162 1C9.34054 4.45946 8.99459 7.65946 8.90811 10.9459C10.0324 9.3027 11.0703 7.57297 12.973 6.62162C12.0216 8.43784 10.3784 9.82162 9.94595 12.2432C11.9351 10.8595 13.4054 9.04324 16 9.12973C15.4811 9.56216 15.0486 10.1676 14.4432 10.5135C12.627 11.8108 10.8973 13.1081 8.99459 14.3189C7.61081 15.2703 6.22703 14.9243 5.1027 13.8865C4.4973 13.3676 3.97838 12.6757 3.54595 11.9838C2.68108 10.2541 1.81622 8.61081 0 7.65946C2.50811 7.22703 3.71892 9.21622 5.53514 10.773C4.67027 8.17838 4.23784 5.75676 4.92973 3.33514C5.01622 3.33514 5.1027 3.33514 5.27568 3.24865C5.79459 5.41081 6.31351 7.74595 6.83243 9.99459Z" />
</svg>